<?xml version="1.0" encoding="UTF-8" standalone="no"?>
<!-- Created with Inkscape (http://www.inkscape.org/) -->

<svg
   xmlns:dc="http://purl.org/dc/elements/1.1/"
   xmlns:cc="http://creativecommons.org/ns#"
   xmlns:rdf="http://www.w3.org/1999/02/22-rdf-syntax-ns#"
   xmlns:svg="http://www.w3.org/2000/svg"
   xmlns="http://www.w3.org/2000/svg"
   xmlns:sodipodi="http://sodipodi.sourceforge.net/DTD/sodipodi-0.dtd"
   xmlns:inkscape="http://www.inkscape.org/namespaces/inkscape"
   width="14.312193mm"
   height="14.312191mm"
   viewBox="0 0 14.312193 14.312191"
   version="1.1"
   id="svg8"
   inkscape:version="0.92.0 r15299"
   sodipodi:docname="qunatify_svg_m.svg">
  <defs
     id="defs2" />
  <sodipodi:namedview
     id="base"
     pagecolor="#ffffff"
     bordercolor="#666666"
     borderopacity="1.0"
     inkscape:pageopacity="0.0"
     inkscape:pageshadow="2"
     inkscape:zoom="2.8"
     inkscape:cx="-34.391063"
     inkscape:cy="28.132275"
     inkscape:document-units="mm"
     inkscape:current-layer="layer1"
     showgrid="false"
     fit-margin-top="0"
     fit-margin-left="0"
     fit-margin-right="0"
     fit-margin-bottom="0"
     inkscape:pagecheckerboard="true"
     inkscape:window-width="1509"
     inkscape:window-height="840"
     inkscape:window-x="231"
     inkscape:window-y="236"
     inkscape:window-maximized="0" />
  <metadata
     id="metadata5">
    <rdf:RDF>
      <cc:Work
         rdf:about="">
        <dc:format>image/svg+xml</dc:format>
        <dc:type
           rdf:resource="http://purl.org/dc/dcmitype/StillImage" />
        <dc:title />
      </cc:Work>
    </rdf:RDF>
  </metadata>
  <g
     inkscape:label="Ebene 1"
     inkscape:groupmode="layer"
     id="layer1"
     transform="translate(-22.241727,-83.754655)">
    <g
       id="svgqs"
       inkscape:label="#g4508">
      <g
         id="g4529">
        <path
           inkscape:connector-curvature="0"
           id="qringsvg"
           d="M 33.066452,96.349962 C 30.787557,97.934006 27.50494,97.826136 25.34728,96.07221 23.226549,94.458982 22.313292,91.489029 23.132,88.959774 c 0.785014,-2.658632 3.411965,-4.613484 6.181026,-4.60927 2.770962,-0.07556 5.449847,1.814336 6.300864,4.456012 0.33025,0.973667 0.424519,2.025462 0.277241,3.042764"
           style="opacity:0.97000002;vector-effect:none;fill:none;fill-opacity:1;stroke:#5f5f5f;stroke-width:1.19062495;stroke-linecap:butt;stroke-linejoin:miter;stroke-miterlimit:4;stroke-dasharray:none;stroke-dashoffset:0;stroke-opacity:1"
           inkscape:label="#path4522" />
        <g
           id="flowRoot4493"
           style="font-style:normal;font-weight:normal;font-size:40px;line-height:25px;font-family:sans-serif;letter-spacing:0px;word-spacing:0px;fill:#9a9a9a;fill-opacity:1;stroke:none"
           transform="matrix(0.19855929,0,0,0.19855929,51.047854,95.509281)"
           aria-label="Q">
          <path
             inkscape:connector-curvature="0"
             id="qinnersvg"
             style="font-style:normal;font-variant:normal;font-weight:bold;font-stretch:normal;font-size:40px;font-family:Gautami;-inkscape-font-specification:'Gautami, Bold';font-variant-ligatures:normal;font-variant-caps:normal;font-variant-numeric:normal;font-feature-settings:normal;text-align:start;writing-mode:lr-tb;text-anchor:start;fill:#5f5f5f;fill-opacity:1"
             d="m -96.111328,-10.122022 -2.832031,3.4570315 -4.804691,-3.8476565 q -1.1914,0.6250003 -2.57812,0.8984378 -1.38672,0.2929687 -2.85156,0.2929687 -2.91016,0 -5.27344,-0.9765625 -2.34375,-0.996094 -4.00391,-2.792969 -1.64062,-1.796875 -2.53906,-4.316406 -0.87891,-2.519531 -0.87891,-5.566406 0,-3.066406 0.87891,-5.585938 0.89844,-2.519531 2.55859,-4.316406 1.66016,-1.796875 4.00391,-2.773437 2.36328,-0.996094 5.25391,-0.996094 2.87109,0 5.19531,0.996094 2.32422,0.996093 3.96484,2.8125 1.660158,1.796875 2.558596,4.316406 0.898437,2.519531 0.898437,5.605469 0,1.308593 -0.195312,2.597656 -0.175782,1.289062 -0.585938,2.539062 -0.410156,1.230469 -1.054687,2.421875 -0.625,1.171875 -1.542969,2.226563 z m -7.636722,-5.996093 q 1.07422,-1.347657 1.54297,-3.066407 0.46875,-1.71875 0.46875,-3.789062 0,-2.070313 -0.50781,-3.789063 -0.48828,-1.71875 -1.44531,-2.949218 -0.95703,-1.25 -2.32422,-1.933594 -1.36719,-0.703125 -3.125,-0.703125 -1.75781,0 -3.16406,0.703125 -1.38672,0.683594 -2.36329,1.933594 -0.97656,1.230468 -1.5039,2.949218 -0.50781,1.71875 -0.50781,3.789063 0,2.207031 0.5664,3.945312 0.58594,1.738282 1.58203,2.949219 0.9961,1.191406 2.34375,1.835938 1.36719,0.625 2.94922,0.625 0.60547,0 1.07422,-0.03906 0.48828,-0.05859 0.89844,-0.195312 l -1.875,-1.5625 2.48047,-2.988282 z"
             inkscape:label="#path4501" />
        </g>
      </g>
    </g>
  </g>
</svg>
